<?xml version="1.0" encoding="UTF-8"?><!-- Generator: Adobe Illustrator 18.1.1, SVG Export Plug-In . SVG Version: 6.00 Build 0)  --><svg xmlns="http://www.w3.org/2000/svg" xmlns:xlink="http://www.w3.org/1999/xlink" contentScriptType="text/ecmascript" zoomAndPan="magnify" contentStyleType="text/css" id="Layer_1" enable-background="new 0 136.8 500 363.2" version="1.1" xml:space="preserve" preserveAspectRatio="xMidYMid meet" viewBox="0 136.8 500 363.2" x="0px" y="0px">
<g id="change2_1_">
	<g id="change2">
		<path fill="#a96fff" d="M193.5,304.3c16,18.7,23.7,42.6,21.7,67.1c-3.5,43.6-37.7,78.6-80.1,84.1c-3.8,0.5-7.7,0.8-11.7,0.8    c-2.5,0-5-0.1-7.4-0.3c-5.4-0.4-10.7-1.4-15.9-2.7c-42.5-11-72.3-51.3-68.7-96.5c3.1-38.3,29.8-69.9,65-80.8    c3.7-1.1,7.4-2,11.3-2.7c5.1-0.9,10.2-1.4,15.5-1.4c0.2,0,0.4,0,0.6,0c2.3,0,4.6,0.1,6.8,0.3c0.8,0.1,1.6,0.2,2.3,0.3    c3,0.3,6,0.8,8.9,1.4c5.7,1.2,11.2,2.8,16.5,5c3.8,1.6,7.5,3.4,11.1,5.5c2.4,1.4,4.8,2.9,7.1,4.5    C182.7,293.2,188.4,298.4,193.5,304.3z"/>
		<path fill="#a96fff" d="M256.6,390.4c0-53.8,42.8-97.8,96.1-99.9c-40.6,15.7-69.5,55.1-69.5,101.1c0,43.3,25.6,80.8,62.5,98.1    C295.7,484.3,256.6,441.9,256.6,390.4z"/>
	</g>
	<path fill="#a96fff" d="M174.4,368.1c-1.3,16.5-16,29.3-32.8,28c-16.7-1.3-29.3-16-28-32.8c1.3-15.7,14.6-28.1,30.3-28.1   c0.8,0,1.6,0,2.5,0.1C163.1,336.7,175.7,351.4,174.4,368.1z"/>
</g>
<g id="change3">
	<path fill="#212121" d="M453.9,303c-10.1-7.1-21.5-12.6-33.7-15.9l13.8-28.8c0.7-0.8,1.3-1.6,1.8-2.5l3.2,2l13.3,8.3l5.8,3.6   l7.4,4.6L453.9,303z"/>
	<path fill="#212121" d="M467.8,265.9l-11-6.8l-17.6-11c0.8-2.4,1.3-4.8,1.7-7.2c0.1-0.5,0.3-0.9,0.3-1.4c0.1-0.8,0.1-1.6,0.2-2.4   c0.5-4.7,0.4-9,0.3-11.8c-0.4-9.7-2.1-18.8-5.2-27.2C457.4,213,469.6,235.7,467.8,265.9z"/>
	<path fill="#212121" d="M127.1,239.7c1,0.4,23.4,2.8,23.4,2.8l-12.8,22c-2.1-0.3-4.2-0.5-6.3-0.7c-2.1-0.2-4.3-0.3-6.4-0.3   c-3.4-0.8-6.9-1.5-10.4-2L127.1,239.7z"/>
	<path fill="#212121" d="M165.4,251.1l6.2,5.7l8.7,7.9c0,0,0,0.1-0.1,0.1l-6.7,12.2c-8.4-4.9-17.6-8.5-27.2-10.7l11.5-19.8   c0.3-0.5,0.5-1.1,0.7-1.6L165.4,251.1z"/>
	<path fill="#212121" d="M164.5,238.8c34.2-35.2,82.8-58.4,130.5-62.9c-14.5,3.7-28.9,8.6-42.9,14.8c-30.4,13.3-58,31.9-80.8,54.3   L164.5,238.8z"/>
	<path fill="#212121" d="M30.4,420.9c-16-18.7-23.7-42.6-21.7-67.1c3.5-43.6,37.7-78.6,80.1-84.1C53,283,26.3,316.2,23.1,356.1   c-2.9,36.8,14.5,70.6,42.7,90.4C52.3,441,40.2,432.3,30.4,420.9z"/>
	<path fill="#212121" d="M346.4,197.9c-50.3,0-110.6,22.1-153.7,66.7l-15.2-13.8c45.2-44.4,105.6-68.8,159.5-73.5   c18.7,3.3,34.1,10.5,44.5,21c1.5,1.5,2.9,3.2,4.2,4.8C373.8,199.7,360.5,197.9,346.4,197.9z"/>
	<path fill="#212121" d="M363.9,176.6c-8.1-3.6-17-6.1-26.6-7.8c-8.1-1.4-16.6-2.1-25.5-2.1c-50.6,0-111.5,22.4-154.6,67.5l-4.3-0.1   c-0.5-0.1-1-0.3-1.5-0.3l-20.2-1.9c51.3-58,127.4-86.7,190.4-86.7c38.4,0,71.9,10.7,92,31.8c3.9,4.1,7.2,8.5,10,13.4   c6.4,11,9.8,24.1,9.7,39.1c-0.1,1.9-0.2,5.5-0.6,9.1l0,0v0.1c-0.2,2.6-0.5,5.1-1,7.2h-26.2h-0.7v-13.8c-0.3-4.5-1-8.8-2.1-12.8   c-1.1-4.1-2.5-8-4.4-11.6C391.6,193.8,379.4,183.4,363.9,176.6z"/>
	<path fill="#212121" d="M402.7,254.3l23.6,0.4l-14.6,30.5c-6.5-1.2-13.2-1.9-20.1-1.9c-1,0-1.9,0.1-2.8,0.1L402.7,254.3z"/>
	<path fill="#212121" d="M395.5,491.5c-1.3,0-2.6,0.1-3.9,0.1c-7.2,0-14.2-0.8-21-2.2c-45.1-9.7-79-49.8-79-97.7   c0-49.4,36-90.5,83.2-98.5c0.9-0.2,1.9-0.3,2.8-0.5c2.3-0.3,4.7-0.6,7.1-0.7c2.3-0.2,4.6-0.3,6.9-0.3c3.7,0,7.3,0.2,10.9,0.6   c1.8,0.2,3.6,0.5,5.4,0.8c2.9,0.5,5.7,1.1,8.5,1.8c13.3,3.4,25.5,9.5,36,17.6c0.4,0.4,0.8,0.8,1.4,1.1c23,18.3,37.8,46.6,37.8,78.2   C491.6,445.5,448.8,489.5,395.5,491.5z"/>
</g>
<g id="change1">
	<path fill="#000" d="M460.8,308.3c0,0,15.6-39.5,15.3-40.4c1.9-25.1-5.2-47.2-20.5-64.1c-7.1-7.8-15.9-14.5-26.1-19.8   c-2.5-4-5.3-7.8-8.5-11.4c-20.9-23.1-56.2-35.8-99.4-35.8c-34.1,0-70.1,7.9-104.1,22.8c-36.8,16.1-69.4,39.9-94.4,68.7   c-1.4,1.6-2.1,3.7-2,5.8c-0.5,0.5-0.9,1-1.3,1.6l-14.5,25c-1.6-0.1-3.3-0.1-4.9-0.1c-52,0-96,40.7-100.1,92.6   C-1.8,380,6.6,406,24,426.4s41.8,32.9,68.5,35c2.1,0.2,4.3,0.3,6.5,0.3c5.3,1.3,10.7,2.2,16.3,2.7c2.7,0.2,5.4,0.3,8.1,0.3   c52,0,96-40.7,100.1-92.6c2.1-26.8-6.3-52.8-23.7-73.2c-5.7-6.7-12.2-12.5-19.2-17.4l6.1-11l3.7,3.4l0.1,0.1   c0.8,0.7,1.8,1.1,2.8,1.1c1.1,0,4.4-3.6,4.6-3.7c38.3-40.1,95.2-64.9,148.5-64.9c17.4,0,32.9,2.7,45.8,7.9c3,6.9,4.5,14.5,4.5,22.8   c-0.1,3.8-0.5,10-2.2,15l-15.3,32c-0.4,0-0.8,0.1-1.2,0.1c-6.9-1.4-14.1-2.1-21.4-2.1c-59.8,0-108.4,48.6-108.4,108.4   s48.6,108.2,108.4,108.2c4.6,0,9.2-0.3,13.6-0.9c6.9,1.4,14.1,2.1,21.4,2.1c59.8,0,108.4-48.6,108.4-108.4   C500,358.2,484.7,328.2,460.8,308.3z M453.9,303c-10.1-7.1-21.5-12.6-33.7-15.9l13.8-28.8c0.7-0.8,1.3-1.6,1.8-2.5l3.2,2l13.3,8.3   l5.8,3.6l7.4,4.6L453.9,303z M467.8,265.9l-11-6.8l-17.6-11c0.8-2.4,1.3-4.8,1.7-7.2c0.1-0.5,0.3-0.9,0.3-1.4   c0.1-0.8,0.1-1.6,0.2-2.4c0.5-4.7,0.4-9,0.3-11.8c-0.4-9.7-2.1-18.8-5.2-27.2C457.4,213,469.6,235.7,467.8,265.9z M127.1,239.7   c1,0.4,23.4,2.8,23.4,2.8l-12.8,22c-2.1-0.3-4.2-0.5-6.3-0.7c-2.1-0.2-4.3-0.3-6.4-0.3c-3.4-0.8-6.9-1.5-10.4-2L127.1,239.7z    M165.4,251.1l6.2,5.7l8.7,7.9c0,0,0,0.1-0.1,0.1l-6.7,12.2c-8.4-4.9-17.6-8.5-27.2-10.7l11.5-19.8c0.3-0.5,0.5-1.1,0.7-1.6   L165.4,251.1z M164.5,238.8c34.2-35.2,82.8-58.4,130.5-62.9c-14.5,3.7-28.9,8.6-42.9,14.8c-30.4,13.3-58,31.9-80.8,54.3   L164.5,238.8z M30.4,420.9c-16-18.7-23.7-42.6-21.7-67.1c3.5-43.6,37.7-78.6,80.1-84.1C53,283,26.3,316.2,23.1,356.1   c-2.9,36.8,14.5,70.6,42.7,90.4C52.3,441,40.2,432.3,30.4,420.9z M193.5,304.3c16,18.7,23.7,42.6,21.7,67.1   c-3.5,43.6-37.7,78.6-80.1,84.1c-3.8,0.5-7.7,0.8-11.7,0.8c-2.5,0-5-0.1-7.4-0.3c-5.4-0.4-10.7-1.4-15.9-2.7   c-42.5-11-72.3-51.3-68.7-96.5c3.1-38.3,29.8-69.9,65-80.8c3.7-1.1,7.4-2,11.3-2.7c5.1-0.9,10.2-1.4,15.5-1.4c0.2,0,0.4,0,0.6,0   c2.3,0,4.6,0.1,6.8,0.3c0.8,0.1,1.6,0.2,2.3,0.3c3,0.3,6,0.8,8.9,1.4c5.7,1.2,11.2,2.8,16.5,5c3.8,1.6,7.5,3.4,11.1,5.5   c2.4,1.4,4.8,2.9,7.1,4.5C182.7,293.2,188.4,298.4,193.5,304.3z M346.4,197.9c-50.3,0-110.6,22.1-153.7,66.7l-15.2-13.8   c45.2-44.4,105.6-68.8,159.5-73.5c18.7,3.3,34.1,10.5,44.5,21c1.5,1.5,2.9,3.2,4.2,4.8C373.8,199.7,360.5,197.9,346.4,197.9z    M363.9,176.6c-8.1-3.6-17-6.1-26.6-7.8c-8.1-1.4-16.6-2.1-25.5-2.1c-50.6,0-111.5,22.4-154.6,67.5l-4.3-0.1   c-0.5-0.1-1-0.3-1.5-0.3l-20.2-1.9c51.3-58,127.4-86.7,190.4-86.7c38.4,0,71.9,10.7,92,31.8c3.9,4.1,7.2,8.5,10,13.4   c6.4,11,9.8,24.1,9.7,39.1c-0.1,1.9-0.2,5.5-0.6,9.1l0,0v0.1c-0.2,2.6-0.5,5.1-1,7.2h-26.2h-0.7v-13.8c-0.3-4.5-1-8.8-2.1-12.8   c-1.1-4.1-2.5-8-4.4-11.6C391.6,193.8,379.4,183.4,363.9,176.6z M402.7,254.3l23.6,0.4l-14.6,30.5c-6.5-1.2-13.2-1.9-20.1-1.9   c-1,0-1.9,0.1-2.8,0.1L402.7,254.3z M256.6,390.4c0-53.8,42.8-97.8,96.1-99.9c-40.6,15.7-69.5,55.1-69.5,101.1   c0,43.3,25.6,80.8,62.5,98.1C295.7,484.3,256.6,441.9,256.6,390.4z M395.5,491.5c-1.3,0-2.6,0.1-3.9,0.1c-7.2,0-14.2-0.8-21-2.2   c-45.1-9.7-79-49.8-79-97.7c0-49.4,36-90.5,83.2-98.5c0.9-0.2,1.9-0.3,2.8-0.5c2.3-0.3,4.7-0.6,7.1-0.7c2.3-0.2,4.6-0.3,6.9-0.3   c3.7,0,7.3,0.2,10.9,0.6c1.8,0.2,3.6,0.5,5.4,0.8c2.9,0.5,5.7,1.1,8.5,1.8c13.3,3.4,25.5,9.5,36,17.6c0.4,0.4,0.8,0.8,1.4,1.1   c23,18.3,37.8,46.6,37.8,78.2C491.6,445.5,448.8,489.5,395.5,491.5z"/>
	<path fill="#000" d="M148,327.1c2.9-8.4-0.3-15.8-0.5-16.1c-1-2.1-3.5-3-5.6-2.1c-2.1,1-3,3.5-2.1,5.6c0,0.1,2.8,6.4-1.1,12.6   c0,0.1-0.1,0.1-0.1,0.2c-9.5,1.3-17.9,6.1-24,13c-3.1-6.3-8.9-12.3-15.7-10c-2.2,0.7-3.4,3.1-2.7,5.3c0.7,2.2,3.1,3.4,5.3,2.7   c1.4-0.5,4.5,3.3,6,6.8c0.4,1,1.3,1.7,2.2,2.1c-2.6,4.7-4.2,9.9-4.7,15.5c-0.2,2-0.1,3.9,0,5.8c-2.2-1.1-4.7-1.9-7.3-1.8   c-3,0.2-5.6,1.5-7.6,4c-1.4,1.8-1.2,4.5,0.7,5.9c1.8,1.4,4.5,1.2,5.9-0.7c0.5-0.7,1-0.8,1.5-0.9c0.1,0,0.1,0,0.2,0   c2.3,0,5.9,2.6,7.8,4.4c0.5,0.5,1.1,0.8,1.8,1c2.3,5.6,5.9,10.5,10.4,14.5l-1.9,5c-0.8,2.2,0.2,4.6,2.4,5.4c0.5,0.2,1,0.3,1.5,0.3   c1.7,0,3.3-1,3.9-2.7l1.2-3.1c4.6,2.5,9.7,4.1,15.3,4.5c1,0.1,2.1,0.1,3.1,0.1c3.7,0,7.3-0.5,10.8-1.5c2.1,1.2,6.5,4.7,5.2,11.1   c-0.5,2.3,1,4.5,3.3,4.9c0.3,0.1,0.6,0.1,0.8,0.1c2,0,3.7-1.4,4.1-3.4c1.5-7.4-1.3-12.9-4.8-16.5c6.3-3.7,11.4-9,14.9-15.5   c0,0,0,0,0.1,0.1l6.9,4.4c0.7,0.5,1.5,0.7,2.3,0.7c1.4,0,2.7-0.7,3.5-1.9c1.3-2,0.7-4.5-1.3-5.8l-6.9-4.4c-0.5-0.3-1-0.5-1.5-0.6   c0.7-2.4,1.1-4.9,1.3-7.4c0.5-6.4-0.6-12.6-3-18.2c5-3.7,8.5-12.7,10-16.9c0.8-2.2-0.4-4.6-2.6-5.3c-2.2-0.8-4.6,0.4-5.3,2.6   c-1.7,5-4.4,10.2-6.2,12.2C169.3,334.4,159.5,328.3,148,327.1z M174.4,368.1c-1.3,16.5-16,29.3-32.8,28c-16.7-1.3-29.3-16-28-32.8   c1.3-15.7,14.6-28.1,30.3-28.1c0.8,0,1.6,0,2.5,0.1C163.1,336.7,175.7,351.4,174.4,368.1z"/>
</g>
</svg>